<?xml version="1.0" encoding="UTF-8"?><svg id="Layer_1" xmlns="http://www.w3.org/2000/svg" viewBox="0 0 90.82 99.44"><defs><style>.cls-1{fill:#f05d26;stroke-width:0px;}</style></defs><path class="cls-1" d="M75.15,49.76c.1,3.26-.46,6.36-1.42,9.38-.3.93-.27,1.72.03,2.63.62,1.87,1.4,3.7,1.73,5.66,1.33,7.93-5.96,14.8-13.61,12.35-3.7-1.18-6.87-1.07-10.59-.26-15.62,3.43-30.98-6.31-35.06-21.82-4.57-17.4,6.27-34.75,23.78-38.06,14.96-2.82,30.32,7.05,34.1,21.94.26,1.04.48,2.08.67,3.14.31,1.69.41,3.4.38,5.04ZM61.97,60.91c-.32-.73-.37-1.32.03-2.08,2.12-4.09,2.61-8.42,1.83-12.94-1.88-10.88-12.78-17.92-23.45-15.12-9.4,2.46-15.32,11.74-13.98,21.88,1.8,13.59,16.53,20.9,28.31,14.01.76-.44,1.31-.45,2.06-.12,2.98,1.31,5.98,2.56,9.37,4.01-1.5-3.47-2.81-6.56-4.17-9.64Z"/></svg>