<?xml version="1.0" encoding="UTF-8"?><svg id="Layer_1" xmlns="http://www.w3.org/2000/svg" xmlns:xlink="http://www.w3.org/1999/xlink" viewBox="0 0 288 99.44"><defs><style>.cls-1{fill:#f15a26;}.cls-1,.cls-2,.cls-3{stroke-width:0px;}.cls-4{clip-path:url(#clippath);}.cls-2{fill:none;}.cls-3{fill:#f05d26;}</style><clipPath id="clippath"><rect class="cls-2" width="288" height="99.44"/></clipPath></defs><path class="cls-1" d="M151.22,64.99c2.24,2.93,4.98,4.49,8.39,4.76,4.17.33,7.75-.82,10.28-4.4.21-.3.71-.55,1.08-.56,3.64-.04,7.28-.02,11.09-.02-1.69,5.62-5.01,9.76-10.12,12.22-12.96,6.23-27.98.69-32.54-13.34-4.47-13.75,4.74-28.35,19.05-29.89,11.86-1.28,21.09,5.67,23.73,16.57.31,1.26.02,1.7-1.12,2.17-9.23,3.8-18.43,7.67-27.63,11.52-.66.27-1.3.57-2.23.98ZM148.81,56.15c7.03-2.94,13.87-5.81,20.72-8.67-1.43-2.87-6.71-5.09-11.54-3.85-5.53,1.42-9.11,6.2-9.19,12.52Z"/><g class="cls-4"><path class="cls-3" d="M85.2,48.93c.1,3.26-.46,6.36-1.42,9.38-.3.93-.27,1.72.03,2.63.62,1.87,1.4,3.7,1.73,5.66,1.33,7.93-5.96,14.8-13.61,12.35-3.7-1.18-6.87-1.07-10.59-.26-15.62,3.43-30.98-6.31-35.06-21.82-4.57-17.4,6.27-34.75,23.78-38.06,14.96-2.82,30.32,7.05,34.1,21.94.26,1.04.48,2.08.67,3.14.31,1.69.41,3.4.38,5.04ZM94.16,49.71c0,4.02-.03,8.03.01,12.05.02,2.38.53,4.68,1.45,6.87,2.82,6.71,8.13,9.99,15.17,10.71,11.07,1.13,20.98-5.26,21.65-17.38.46-8.38.1-16.81.13-25.22,0-.74-.16-1.04-.97-1.02-3.01.04-6.01.05-9.02,0-.92-.02-1.04.37-1.02,1.14.04,2.03.02,4.07.01,6.11,0,6.05.06,12.11-.04,18.16-.07,4.2-3.22,7.35-7.4,7.71-4.72.4-7.98-1.8-8.85-6.05-.19-.93-.18-1.92-.18-2.88-.01-7.61-.02-15.21.01-22.82,0-1.01-.2-1.4-1.31-1.37-2.79.08-5.58.07-8.38,0-1.03-.02-1.37.23-1.35,1.31.06,4.23.03,8.46.03,12.69h.04ZM189.93,77.05c-.03,1.26.37,1.51,1.54,1.47,2.52-.09,5.05-.12,7.57,0,1.5.08,1.98-.26,1.96-1.87-.1-7.39-.05-14.79-.04-22.18,0-2.58.48-5.03,2.37-6.95,2.21-2.24,5.01-2.76,8-2.49,1.03.09,1.43-.09,1.4-1.23-.08-2.57-.04-5.14-.01-7.71,0-.81-.12-1.35-1.11-1.33-1.56.03-3.12-.08-4.67.01-9.05.53-15.74,6.94-16.73,15.93-.51,4.65-.08,9.31-.25,13.12,0,4.98.06,9.11-.03,13.23ZM218.69,77.11c-.02,1.15.34,1.45,1.45,1.41,2.52-.08,5.05-.12,7.57.01,1.55.08,2.08-.25,2.05-1.96-.11-7.34-.06-14.68-.04-22.02,0-3.98,1.23-7.28,5.25-8.91,1.68-.68,3.44-.8,5.22-.61.95.1,1.35-.06,1.32-1.14-.08-2.62-.06-5.25,0-7.88.02-.89-.27-1.28-1.18-1.26-1.4.03-2.79-.05-4.19,0-9.3.29-16.41,7.06-17.21,16.31-.39,4.55-.08,9.11-.2,12.85,0,4.93.04,9.06-.03,13.18ZM260,36.98c0-.94-.18-1.31-1.22-1.28-2.84.08-5.69.06-8.53,0-.94-.02-1.29.18-1.29,1.22.04,13.43.04,26.87,0,40.31,0,1.14.42,1.3,1.39,1.28,2.68-.06,5.37-.08,8.05,0,1.23.04,1.63-.26,1.61-1.56-.07-6.58-.03-13.17-.03-19.75,0-6.74-.02-13.49.02-20.23ZM249.01,25.8c.23,2.98,2.42,5.11,5.3,5.19,2.98.09,5.37-1.92,5.67-4.95.18-1.8.06-3.63.14-5.44.04-.92-.3-1.21-1.2-1.18-2.09.05-4.18.02-6.27.02q-3.67,0-3.65,3.64c0,.91-.06,1.82.01,2.72ZM72.02,60.08c-.32-.73-.37-1.32.03-2.08,2.12-4.09,2.61-8.42,1.83-12.94-1.88-10.88-12.78-17.92-23.45-15.12-9.4,2.46-15.32,11.74-13.98,21.88,1.8,13.59,16.53,20.9,28.31,14.01.76-.44,1.31-.45,2.06-.12,2.98,1.31,5.98,2.56,9.37,4.01-1.5-3.47-2.81-6.56-4.17-9.64Z"/></g></svg>